<?xml version="1.0" encoding="UTF-8"?><svg id="Layer_2" xmlns="http://www.w3.org/2000/svg" viewBox="0 0 480.08 489.03"><defs><style>.cls-1{fill:#fff;}</style></defs><g id="Layer_1-2"><path d="M88.83.28l300.7-.28c48.3,2.95,84.19,34.01,90.54,82.46v328.08c-3.4,43.63-39.99,75.12-82.55,78.45l-313.03.05c-43.5-2.76-79.34-33.65-84.49-77.51L.16,79.61C6.49,35.22,43.85,1.54,88.83.28ZM234.04,148.49c.76,8.64-.56,18.24,0,27l-1.5,1.5h-35c-3.08,0-6.59,6.27-6.59,9.5,0,9.21,8.34,7.04,9.1,10.99,1.09,5.62.52,26.5.03,33.05-.24,3.17-1.11,6.32-1.52,9.48-21.9,40.42-51.63,78.64-72.69,119.31-7.79,15.05-14.28,31.57-10.37,48.71,5.99,26.26,34.19,39.49,58.99,41.01,46.1,2.83,96.51-1.14,142.73-1.37,44.43-9.79,59.63-42.08,39.99-83.36-20.26-42.59-53.16-82.71-75.49-124.51-1.03-3.96-1.46-42.04-.22-43.86s6.98-1.53,7.61-7.43c.34-3.2-1.94-11.53-5.57-11.53h-27.5c-1.11,18.3,2.15,36.23,5.99,54l-7.26-15.22c-11-30.38-14.57-75.48,4.05-103.5,16.65-25.07,47.02-39.17,76.22-43.26l-24.3,12.19c-22.64,13.35-45.43,32.48-50.28,59.76l1.23,1.9c61.37,7.14,121.43-36.06,129.31-97.81-21.86-3.57-44.24-4.07-65.99.42-30.46,6.29-58.34,24.93-74.14,51.86l-11.32,24.68c-7.74-28.23-27.68-51.98-53.49-65.53-21.09-11.07-44.92-14.32-68.56-14.52l-28.46,3.05c5.12,30.91,22.13,58.74,47.69,76.81,19.65,13.89,41.89,20.73,65.92,22.09l17.39-.91c-5.93-36.57-41.9-60.6-73.99-73.01-.23-1.88,1.98-.7,3.03-.53,21.09,3.24,46.8,14.91,61.99,30.01,12.51,12.43,21.41,31.35,22.97,49.03Z"/><path class="cls-1" d="M234.04,148.49c-1.56-17.68-10.46-36.6-22.97-49.03-15.19-15.1-40.9-26.77-61.99-30.01-1.05-.16-3.26-1.34-3.03.53,32.09,12.4,68.06,36.44,73.99,73.01l-17.39.91c-24.04-1.35-46.28-8.2-65.92-22.09-25.56-18.07-42.57-45.9-47.69-76.81l28.46-3.05c23.64.2,47.47,3.45,68.56,14.52,25.81,13.55,45.75,37.3,53.49,65.53l11.32-24.68c15.8-26.93,43.67-45.57,74.14-51.86,21.74-4.49,44.12-3.99,65.99-.42-7.88,61.75-67.94,104.95-129.31,97.81l-1.23-1.9c4.85-27.28,27.64-46.41,50.28-59.76l24.3-12.19c-29.2,4.1-59.57,18.2-76.22,43.26-18.61,28.02-15.04,73.12-4.05,103.5l7.26,15.22c-3.84-17.76-7.1-35.7-5.99-54h27.5c3.63,0,5.91,8.33,5.57,11.53-.63,5.9-6.41,5.68-7.61,7.43s-.81,39.89.22,43.86c22.33,41.79,55.23,81.92,75.49,124.51,19.64,41.28,4.44,73.56-39.99,83.36-46.22.22-96.63,4.19-142.73,1.37-24.8-1.52-53-14.75-58.99-41.01-3.91-17.14,2.57-33.66,10.37-48.71,21.06-40.67,50.79-78.89,72.69-119.31.41-3.16,1.28-6.3,1.52-9.48.5-6.55,1.07-27.44-.03-33.05-.77-3.94-9.1-1.78-9.1-10.99,0-3.23,3.51-9.5,6.59-9.5h35l1.5-1.5c-.56-8.76.76-18.36,0-27ZM314.98,329.01c-48.85,18.56-87.65-37.89-137.26-18.09-14.67,28.97-65.1,84.2-22.01,110.89,32.15,19.91,105.03,3.11,142.86,8.21,17.46-2.03,37.23-10.44,41.97-29.03,6.78-26.59-15.19-49.59-25.57-71.99Z"/><path d="M314.98,329.01c10.38,22.4,32.35,45.4,25.57,71.99-4.74,18.59-24.51,27-41.97,29.03-37.83-5.11-110.71,11.7-142.86-8.21-43.09-26.69,7.33-81.92,22.01-110.89,49.6-19.8,88.41,36.64,137.26,18.09ZM197.76,332.22c-19.2,3.97-14.82,34.79,6.48,32.56,21.26-2.23,18.36-37.69-6.48-32.56ZM238.74,361.2c-11.89,2.73-10.1,24.25,4.52,22.6,15.56-1.75,11.96-26.39-4.52-22.6ZM198.74,385.21c-11.53,2.66-10.36,24.34,3.53,23.55,18.16-1.02,14.83-27.78-3.53-23.55Z"/><path class="cls-1" d="M197.76,332.22c24.85-5.14,27.75,30.32,6.48,32.56-21.31,2.24-25.68-28.59-6.48-32.56Z"/><path class="cls-1" d="M198.74,385.21c18.36-4.23,21.7,22.53,3.53,23.55-13.9.78-15.06-20.9-3.53-23.55Z"/><path class="cls-1" d="M238.74,361.2c16.48-3.79,20.08,20.85,4.52,22.6-14.63,1.64-16.41-19.87-4.52-22.6Z"/></g></svg>